<svg width="94" height="87" viewBox="0 0 94 87" fill="none" xmlns="http://www.w3.org/2000/svg">
<path d="M80.805 33.636C80.805 33.636 80.858 33.8682 80.8845 33.9842H93.5484C89.7598 15.3814 74.95 0 53.5698 0C66.8695 5.02073 77.5993 17.529 80.805 33.636ZM53.5168 86.9776C32.1631 86.2521 15.0749 66.6625 15.0749 43.5033C15.0749 27.1642 28.3481 14.3947 43.2374 16.8035C33.9912 21.6501 27.7917 32.0688 27.7917 43.5033C27.7917 59.5522 39.8727 73.0763 54.7885 73.0763C66.5516 73.0763 76.8045 64.4569 80.3546 53.0224H93.5484C89.4154 73.3375 72.6451 87.6451 53.5168 86.9776Z" fill="white"/>
<path d="M77.8377 53.0804C77.8377 53.0804 77.8377 53.0804 77.8377 53.0514H65.2533C62.8954 60.6841 57.8086 66.8366 51.2383 70.2612C62.7894 72.0895 73.8372 64.631 77.8112 53.1094M0 43.5033C0 19.5315 17.8036 0 39.7136 0C58.365 0 74.367 14.1915 78.4205 33.7811C78.4205 33.8391 78.4205 33.8972 78.447 33.9552H65.2533C61.4912 21.8823 50.8409 13.9013 39.6871 13.9013C24.8243 13.9013 12.7168 27.1642 12.7168 43.4743C12.7168 63.1219 24.0825 80.5638 40.9323 86.9776C16.108 87.0066 0 66.0821 0 43.5033Z" fill="#73C9E7"/>
</svg>
