<svg width="359" height="308" viewBox="0 0 359 308" fill="none" xmlns="http://www.w3.org/2000/svg">
<g clip-path="url(#clip0_10_84)">
<rect width="359" height="308" fill="white" fill-opacity="0.5"/>
<path d="M310.096 117.179C310.096 117.179 310.3 117.988 310.401 118.393H359C344.461 53.585 287.627 0 205.579 0C256.618 17.491 297.794 61.0667 310.096 117.179ZM205.375 303.009C123.429 300.48 57.8512 232.236 57.8512 151.554C57.8512 94.633 108.788 50.1475 165.927 58.5392C130.444 75.4237 106.653 111.72 106.653 151.554C106.653 207.465 153.015 254.579 210.256 254.579C255.398 254.579 294.744 224.552 308.368 184.717H359C343.14 255.49 278.782 305.334 205.375 303.009Z" fill="#290054"/>
<path d="M298.708 184.919C298.708 184.919 298.708 184.919 298.708 184.818H250.415C241.366 211.408 221.846 232.842 196.631 244.773C240.96 251.142 283.356 225.158 298.607 185.02M0 151.554C0 68.0427 68.3226 0 152.405 0C223.981 0 285.39 49.4398 300.945 117.685C300.945 117.887 300.945 118.089 301.047 118.292H250.415C235.978 76.2325 195.106 48.4288 152.303 48.4288C95.2656 48.4288 48.802 94.633 48.802 151.453C48.802 219.901 92.419 280.664 157.081 303.009C61.8158 303.11 0 230.213 0 151.554Z" fill="#73C9E7"/>
</g>
<defs>
<clipPath id="clip0_10_84">
<rect width="359" height="308" fill="white"/>
</clipPath>
</defs>
</svg>
