<svg width="12" height="11" viewBox="0 0 12 11" fill="none" xmlns="http://www.w3.org/2000/svg">
<path d="M0.982843 2.75137V9.75672" stroke="#73C9E7" stroke-width="1.3" stroke-linecap="round" stroke-linejoin="round"/>
<path d="M10.6152 2.75137V9.75672" stroke="#73C9E7" stroke-width="1.3" stroke-linecap="round" stroke-linejoin="round"/>
<path d="M0.982843 9.75671H10.6152" stroke="#73C9E7" stroke-width="1.3" stroke-linecap="round" stroke-linejoin="round"/>
<path d="M2.73418 1.00003V2.75137" stroke="#73C9E7" stroke-width="1.3" stroke-linecap="round" stroke-linejoin="round"/>
<path d="M8.86386 1.00003V2.75137" stroke="#73C9E7" stroke-width="1.3" stroke-linecap="round" stroke-linejoin="round"/>
<path d="M2.73418 1.00003H4.48552" stroke="#73C9E7" stroke-width="1.3" stroke-linecap="round" stroke-linejoin="round"/>
<path d="M4.48552 2.75137V1.00003" stroke="#73C9E7" stroke-width="1.3" stroke-linecap="round" stroke-linejoin="round"/>
<path d="M8.86386 1.00003H7.11252" stroke="#73C9E7" stroke-width="1.3" stroke-linecap="round" stroke-linejoin="round"/>
<path d="M7.11252 2.75137V1.00003" stroke="#73C9E7" stroke-width="1.3" stroke-linecap="round" stroke-linejoin="round"/>
<path d="M4.48552 4.15238V2.75131" stroke="#73C9E7" stroke-width="1.3" stroke-linecap="round" stroke-linejoin="round"/>
<path d="M4.48552 4.1524H2.73418" stroke="#73C9E7" stroke-width="1.3" stroke-linecap="round" stroke-linejoin="round"/>
<path d="M2.73419 2.75134V4.15241" stroke="#73C9E7" stroke-width="1.3" stroke-linecap="round" stroke-linejoin="round"/>
<path d="M8.86386 4.15238V2.75131" stroke="#73C9E7" stroke-width="1.3" stroke-linecap="round" stroke-linejoin="round"/>
<path d="M8.86386 4.1524H7.11252" stroke="#73C9E7" stroke-width="1.3" stroke-linecap="round" stroke-linejoin="round"/>
<path d="M7.11249 2.75134V4.15241" stroke="#73C9E7" stroke-width="1.3" stroke-linecap="round" stroke-linejoin="round"/>
<path d="M0.982841 2.75134H2.73418" stroke="#73C9E7" stroke-width="1.3" stroke-linecap="round" stroke-linejoin="round"/>
<path d="M4.4855 2.75134H7.11251" stroke="#73C9E7" stroke-width="1.3" stroke-linecap="round" stroke-linejoin="round"/>
<path d="M10.6152 2.75134H8.86384" stroke="#73C9E7" stroke-width="1.3" stroke-linecap="round" stroke-linejoin="round"/>
<rect x="2.26715" y="5.49509" width="1.92647" height="1.28431" fill="#73C9E7"/>
<rect x="2.26715" y="7.42157" width="1.92647" height="1.28431" fill="#73C9E7"/>
<rect x="4.83578" y="5.49509" width="1.92647" height="1.28431" fill="#73C9E7"/>
<rect x="4.83578" y="7.42157" width="1.92647" height="1.28431" fill="#73C9E7"/>
<rect x="7.40441" y="5.49509" width="1.92647" height="1.28431" fill="#73C9E7"/>
</svg>
