<svg width="50" height="50" viewBox="0 0 50 50" fill="none" xmlns="http://www.w3.org/2000/svg">
<path d="M25 0.650391C25.3398 0.650391 25.7033 0.789976 26.1211 1.08301C26.5413 1.37776 26.9616 1.78764 27.4141 2.25391C27.8505 2.70366 28.3256 3.21617 28.8066 3.63672C29.2871 4.05675 29.8411 4.44802 30.4688 4.61426C31.0935 4.77966 31.7705 4.7184 32.4004 4.59668C33.0325 4.47451 33.7059 4.2717 34.3145 4.10156C34.9442 3.9255 35.5158 3.78115 36.0254 3.73438C36.4709 3.69348 36.8111 3.73319 37.0713 3.84961L37.1777 3.9043C37.4502 4.06258 37.6851 4.35489 37.8965 4.81738C38.1084 5.28111 38.2669 5.84669 38.4277 6.47949C38.5832 7.09102 38.7428 7.7746 38.9551 8.38574C39.167 8.99572 39.4564 9.61467 39.918 10.0791C40.3812 10.5452 41.0001 10.8344 41.6094 11.0449C42.2194 11.2557 42.9022 11.4133 43.5127 11.5664C44.1447 11.725 44.7095 11.8817 45.1738 12.0938C45.6359 12.3048 45.9323 12.5418 46.0957 12.8223C46.2586 13.1021 46.3173 13.474 46.2705 13.9756C46.2234 14.48 46.0778 15.0442 45.8994 15.6689C45.7271 16.2721 45.5215 16.9414 45.3984 17.5762C45.2908 18.1314 45.2325 18.723 45.333 19.29L45.3857 19.5322C45.5558 20.1723 45.9472 20.7319 46.3701 21.2178C46.7927 21.7032 47.3045 22.1769 47.7539 22.6104C48.2197 23.0596 48.628 23.4736 48.9209 23.8887C49.1695 24.241 49.3063 24.5555 49.3408 24.8516V25C49.3408 25.337 49.2015 25.6993 48.9082 26.1172C48.6133 26.5372 48.2036 26.958 47.7373 27.4111C47.2873 27.8484 46.7751 28.3248 46.3545 28.8066C45.9871 29.2275 45.6411 29.7035 45.4492 30.2363L45.377 30.4688C45.2116 31.0935 45.2728 31.7705 45.3945 32.4004C45.5167 33.0325 45.7195 33.7059 45.8896 34.3145C46.0657 34.9442 46.2101 35.5158 46.2568 36.0254C46.2977 36.4709 46.258 36.8111 46.1416 37.0713L46.0869 37.1777C45.9286 37.4502 45.6363 37.6851 45.1738 37.8965C44.7101 38.1084 44.1445 38.2669 43.5117 38.4277C42.9002 38.5832 42.2166 38.7428 41.6055 38.9551C40.9955 39.167 40.3765 39.4564 39.9121 39.918C39.446 40.3812 39.1568 41.0001 38.9463 41.6094C38.7355 42.2194 38.578 42.9022 38.4248 43.5127C38.2663 44.1447 38.1095 44.7095 37.8975 45.1738C37.6864 45.6359 37.4494 45.9323 37.1689 46.0957C36.889 46.2586 36.5164 46.3173 36.0146 46.2705C35.5104 46.2234 34.9468 46.0778 34.3223 45.8994C33.7191 45.7271 33.0498 45.5215 32.415 45.3984C31.8598 45.2908 31.2682 45.2325 30.7012 45.333L30.459 45.3857C29.8189 45.5558 29.2593 45.9472 28.7734 46.3701C28.2881 46.7927 27.8143 47.3045 27.3809 47.7539C26.9315 48.2198 26.5167 48.628 26.1016 48.9209C25.69 49.2112 25.3308 49.3496 24.9912 49.3496C24.6515 49.3496 24.2879 49.21 23.8701 48.917C23.4499 48.6222 23.0296 48.2124 22.5771 47.7461C22.1407 47.2963 21.6656 46.7838 21.1846 46.3633C20.7642 45.9958 20.2878 45.65 19.7549 45.458L19.5225 45.3857C18.8977 45.2203 18.2207 45.2816 17.5908 45.4033C16.9587 45.5255 16.2853 45.7283 15.6768 45.8984C15.047 46.0745 14.4754 46.2188 13.9658 46.2656C13.4567 46.3124 13.0853 46.2535 12.8135 46.0957C12.541 45.9374 12.3061 45.6451 12.0947 45.1826C11.8828 44.7189 11.7243 44.1533 11.5635 43.5205C11.4081 42.909 11.2484 42.2254 11.0361 41.6143C10.8508 41.0806 10.6057 40.5404 10.2383 40.1025L10.0732 39.9209C9.60997 39.4548 8.99108 39.1656 8.38184 38.9551C7.77185 38.7443 7.08897 38.5867 6.47852 38.4336C5.84654 38.275 5.28171 38.1183 4.81738 37.9062C4.41278 37.7214 4.13538 37.5166 3.96289 37.2803L3.89551 37.1777C3.73263 36.8979 3.67395 36.526 3.7207 36.0244C3.76778 35.52 3.91337 34.9558 4.0918 34.3311C4.26406 33.7279 4.46966 33.0586 4.59277 32.4238C4.70044 31.8686 4.75872 31.277 4.6582 30.71L4.60547 30.4678C4.43561 29.8282 4.04507 29.2678 3.62305 28.7812C3.20135 28.2952 2.69064 27.8208 2.24219 27.3867C1.77736 26.9368 1.37046 26.5223 1.07812 26.1074C0.7881 25.6957 0.650391 25.3374 0.650391 25C0.650391 24.663 0.789669 24.3007 1.08301 23.8828C1.3779 23.4628 1.78757 23.042 2.25391 22.5889C2.70394 22.1516 3.2161 21.6752 3.63672 21.1934C4.05662 20.7123 4.4481 20.1587 4.61426 19.5312C4.77966 18.9065 4.7184 18.2295 4.59668 17.5996C4.47451 16.9675 4.2717 16.2941 4.10156 15.6855C3.9255 15.0558 3.78115 14.4842 3.73438 13.9746C3.69348 13.5291 3.73319 13.1889 3.84961 12.9287L3.9043 12.8223C4.06258 12.5498 4.35489 12.3149 4.81738 12.1035C5.28111 11.8916 5.84669 11.7331 6.47949 11.5723C7.09102 11.4168 7.7746 11.2572 8.38574 11.0449C8.91938 10.8596 9.45958 10.6145 9.89746 10.2471L10.0791 10.082C10.5452 9.61875 10.8344 8.99987 11.0449 8.39062C11.2557 7.78065 11.4133 7.09776 11.5664 6.4873C11.725 5.85534 11.8817 5.29049 12.0938 4.82617C12.3048 4.36409 12.5418 4.06769 12.8223 3.9043C13.1021 3.74142 13.474 3.68274 13.9756 3.72949C14.48 3.77657 15.0442 3.92216 15.6689 4.10059C16.2721 4.27285 16.9414 4.47845 17.5762 4.60156C18.1314 4.70923 18.723 4.76751 19.29 4.66699L19.5322 4.61426C20.1723 4.44424 20.7319 4.05284 21.2178 3.62988C21.7032 3.20732 22.1769 2.69551 22.6104 2.24609C23.0596 1.78028 23.4736 1.37203 23.8887 1.0791C24.3004 0.78852 24.6603 0.650391 25 0.650391Z" fill="white" stroke="#73C9E7" stroke-width="1.3"/>
<path d="M14 28.0001V33.0001" stroke="#290054" stroke-width="1.3" stroke-linecap="round" stroke-linejoin="round"/>
<path d="M18.9999 31V33" stroke="#290054" stroke-width="1.3" stroke-linecap="round" stroke-linejoin="round"/>
<path d="M15.0002 34.0001H18.0002" stroke="#290054" stroke-width="1.3" stroke-linecap="round" stroke-linejoin="round"/>
<path d="M36 28.0001V33.0001" stroke="#290054" stroke-width="1.3" stroke-linecap="round" stroke-linejoin="round"/>
<path d="M31.0001 31V33" stroke="#290054" stroke-width="1.3" stroke-linecap="round" stroke-linejoin="round"/>
<path d="M34.9999 34.0001H31.9999" stroke="#290054" stroke-width="1.3" stroke-linecap="round" stroke-linejoin="round"/>
<path d="M18.9999 31H30.9999" stroke="#290054" stroke-width="1.3" stroke-linecap="round" stroke-linejoin="round"/>
<path d="M35.9999 26.9999H31.9999" stroke="#290054" stroke-width="1.3" stroke-linecap="round" stroke-linejoin="round"/>
<path d="M35.9998 32.9999C35.9998 33.5529 35.5528 33.9999 34.9998 33.9999" stroke="#290054" stroke-width="1.3" stroke-linecap="round" stroke-linejoin="round"/>
<path d="M31.0001 32.9999C31.0001 33.5529 31.4471 33.9999 32.0001 33.9999" stroke="#290054" stroke-width="1.3" stroke-linecap="round" stroke-linejoin="round"/>
<path d="M19.0001 32.9999C19.0001 33.5529 18.5531 33.9999 18.0001 33.9999" stroke="#290054" stroke-width="1.3" stroke-linecap="round" stroke-linejoin="round"/>
<path d="M14 32.9999C14 33.5529 14.447 33.9999 15 33.9999" stroke="#290054" stroke-width="1.3" stroke-linecap="round" stroke-linejoin="round"/>
<path d="M15.0002 21.9999L17.0002 15.9999" stroke="#290054" stroke-width="1.3" stroke-linecap="round" stroke-linejoin="round"/>
<path d="M35 21.9999L33 15.9999" stroke="#290054" stroke-width="1.3" stroke-linecap="round" stroke-linejoin="round"/>
<path d="M30.0001 14H20.0001" stroke="#290054" stroke-width="1.3" stroke-linecap="round" stroke-linejoin="round"/>
<path d="M14 20H15.667" stroke="#290054" stroke-width="1.3" stroke-linecap="round" stroke-linejoin="round"/>
<path d="M36.0001 20H34.3331" stroke="#290054" stroke-width="1.3" stroke-linecap="round" stroke-linejoin="round"/>
<path d="M17 16C17.404 14.861 18.342 14 20 14" stroke="#290054" stroke-width="1.3" stroke-linecap="round" stroke-linejoin="round"/>
<path d="M14 27.9999C14 24.6839 14 23.9999 15 21.9999" stroke="#290054" stroke-width="1.3" stroke-linecap="round" stroke-linejoin="round"/>
<path d="M35.9998 27.9999C35.9998 24.6839 35.9998 23.9999 34.9998 21.9999" stroke="#290054" stroke-width="1.3" stroke-linecap="round" stroke-linejoin="round"/>
<path d="M29.9999 25C29.9999 26.105 30.8949 27 31.9999 27" stroke="#290054" stroke-width="1.3" stroke-linecap="round" stroke-linejoin="round"/>
<path d="M14 26.9999H18" stroke="#290054" stroke-width="1.3" stroke-linecap="round" stroke-linejoin="round"/>
<path d="M20.0001 25C20.0001 26.105 19.1051 27 18.0001 27" stroke="#290054" stroke-width="1.3" stroke-linecap="round" stroke-linejoin="round"/>
<path d="M20.0001 24.9999V23.9999" stroke="#290054" stroke-width="1.3" stroke-linecap="round" stroke-linejoin="round"/>
<path d="M29.9999 24.9999V23.9999" stroke="#290054" stroke-width="1.3" stroke-linecap="round" stroke-linejoin="round"/>
<path d="M15.0002 21.9999C16.0002 22.9999 18.0002 23.9999 20.0002 23.9999" stroke="#290054" stroke-width="1.3" stroke-linecap="round" stroke-linejoin="round"/>
<path d="M30.0001 23.9999H20.0001" stroke="#290054" stroke-width="1.3" stroke-linecap="round" stroke-linejoin="round"/>
<path d="M34.9999 21.9999C33.9999 22.9999 31.9999 23.9999 29.9999 23.9999" stroke="#290054" stroke-width="1.3" stroke-linecap="round" stroke-linejoin="round"/>
<path d="M32.9999 16C32.5959 14.861 31.6579 14 29.9999 14" stroke="#290054" stroke-width="1.3" stroke-linecap="round" stroke-linejoin="round"/>
</svg>
