<svg width="60" height="15" viewBox="0 0 60 15" fill="none" xmlns="http://www.w3.org/2000/svg">
<rect width="60" height="15" rx="7.5" fill="#88F028"/>
<path d="M18.7344 7.50391H17.2734L17.2656 6.69922H18.4922C18.7083 6.69922 18.8854 6.67188 19.0234 6.61719C19.1615 6.5599 19.2643 6.47786 19.332 6.37109C19.4023 6.26172 19.4375 6.12891 19.4375 5.97266C19.4375 5.79557 19.4036 5.65234 19.3359 5.54297C19.2708 5.43359 19.168 5.35417 19.0273 5.30469C18.8893 5.25521 18.7109 5.23047 18.4922 5.23047H17.6797V10H16.5078V4.3125H18.4922C18.8229 4.3125 19.1185 4.34375 19.3789 4.40625C19.6419 4.46875 19.8646 4.5638 20.0469 4.69141C20.2292 4.81901 20.3685 4.98047 20.4648 5.17578C20.5612 5.36849 20.6094 5.59766 20.6094 5.86328C20.6094 6.09766 20.556 6.3138 20.4492 6.51172C20.3451 6.70964 20.1797 6.87109 19.9531 6.99609C19.7292 7.12109 19.4362 7.1901 19.0742 7.20312L18.7344 7.50391ZM18.6836 10H16.9531L17.4102 9.08594H18.6836C18.8893 9.08594 19.0573 9.05339 19.1875 8.98828C19.3177 8.92057 19.4141 8.82943 19.4766 8.71484C19.5391 8.60026 19.5703 8.46875 19.5703 8.32031C19.5703 8.15365 19.5417 8.00911 19.4844 7.88672C19.4297 7.76432 19.3411 7.67057 19.2188 7.60547C19.0964 7.53776 18.9349 7.50391 18.7344 7.50391H17.6055L17.6133 6.69922H19.0195L19.2891 7.01562C19.6354 7.01042 19.9141 7.07161 20.125 7.19922C20.3385 7.32422 20.4935 7.48698 20.5898 7.6875C20.6888 7.88802 20.7383 8.10286 20.7383 8.33203C20.7383 8.69661 20.6589 9.00391 20.5 9.25391C20.3411 9.5013 20.1081 9.6875 19.8008 9.8125C19.4961 9.9375 19.1237 10 18.6836 10ZM26.2891 7.02344V7.29297C26.2891 7.72526 26.2305 8.11328 26.1133 8.45703C25.9961 8.80078 25.8307 9.09375 25.6172 9.33594C25.4036 9.57552 25.1484 9.75911 24.8516 9.88672C24.5573 10.0143 24.2305 10.0781 23.8711 10.0781C23.5143 10.0781 23.1875 10.0143 22.8906 9.88672C22.5964 9.75911 22.3411 9.57552 22.125 9.33594C21.9089 9.09375 21.7409 8.80078 21.6211 8.45703C21.5039 8.11328 21.4453 7.72526 21.4453 7.29297V7.02344C21.4453 6.58854 21.5039 6.20052 21.6211 5.85938C21.7383 5.51562 21.9036 5.22266 22.1172 4.98047C22.3333 4.73828 22.5885 4.55339 22.8828 4.42578C23.1797 4.29818 23.5065 4.23438 23.8633 4.23438C24.2227 4.23438 24.5495 4.29818 24.8438 4.42578C25.1406 4.55339 25.3958 4.73828 25.6094 4.98047C25.8255 5.22266 25.9922 5.51562 26.1094 5.85938C26.2292 6.20052 26.2891 6.58854 26.2891 7.02344ZM25.1055 7.29297V7.01562C25.1055 6.71354 25.0781 6.44792 25.0234 6.21875C24.9688 5.98958 24.888 5.79688 24.7812 5.64062C24.6745 5.48438 24.5443 5.36719 24.3906 5.28906C24.237 5.20833 24.0612 5.16797 23.8633 5.16797C23.6654 5.16797 23.4896 5.20833 23.3359 5.28906C23.1849 5.36719 23.056 5.48438 22.9492 5.64062C22.8451 5.79688 22.7656 5.98958 22.7109 6.21875C22.6562 6.44792 22.6289 6.71354 22.6289 7.01562V7.29297C22.6289 7.59245 22.6562 7.85807 22.7109 8.08984C22.7656 8.31901 22.8464 8.51302 22.9531 8.67188C23.0599 8.82812 23.1901 8.94661 23.3438 9.02734C23.4974 9.10807 23.6732 9.14844 23.8711 9.14844C24.069 9.14844 24.2448 9.10807 24.3984 9.02734C24.5521 8.94661 24.681 8.82812 24.7852 8.67188C24.8893 8.51302 24.9688 8.31901 25.0234 8.08984C25.0781 7.85807 25.1055 7.59245 25.1055 7.29297ZM31.7617 4.3125V10H30.5898L28.3047 6.1875V10H27.1328V4.3125H28.3047L30.5938 8.12891V4.3125H31.7617ZM36.5195 10H35.2812L35.2891 9.08594H36.5195C36.8268 9.08594 37.0859 9.01693 37.2969 8.87891C37.5078 8.73828 37.6667 8.53385 37.7734 8.26562C37.8828 7.9974 37.9375 7.67318 37.9375 7.29297V7.01562C37.9375 6.72396 37.9062 6.46745 37.8438 6.24609C37.7839 6.02474 37.694 5.83854 37.5742 5.6875C37.4544 5.53646 37.3073 5.42318 37.1328 5.34766C36.9583 5.26953 36.7578 5.23047 36.5312 5.23047H35.2578V4.3125H36.5312C36.9115 4.3125 37.2591 4.3776 37.5742 4.50781C37.8919 4.63542 38.1667 4.81901 38.3984 5.05859C38.6302 5.29818 38.8086 5.58464 38.9336 5.91797C39.0612 6.2487 39.125 6.61719 39.125 7.02344V7.29297C39.125 7.69661 39.0612 8.0651 38.9336 8.39844C38.8086 8.73177 38.6302 9.01823 38.3984 9.25781C38.1693 9.49479 37.8945 9.67839 37.5742 9.80859C37.2565 9.9362 36.9049 10 36.5195 10ZM35.9453 4.3125V10H34.7734V4.3125H35.9453ZM43.793 9.08594V10H40.7656V9.08594H43.793ZM41.1484 4.3125V10H39.9766V4.3125H41.1484ZM43.3984 6.62891V7.51953H40.7656V6.62891H43.3984ZM43.7891 4.3125V5.23047H40.7656V4.3125H43.7891ZM46.7891 5.28516L45.2422 10H43.9961L46.1094 4.3125H46.9023L46.7891 5.28516ZM48.0742 10L46.5234 5.28516L46.3984 4.3125H47.1992L49.3242 10H48.0742ZM48.0039 7.88281V8.80078H45V7.88281H48.0039ZM53.5078 9.08594V10H50.6445V9.08594H53.5078ZM51.0234 4.3125V10H49.8516V4.3125H51.0234Z" fill="#290054"/>
<g clip-path="url(#clip0_624_2)">
<path d="M11.0143 5.58285C10.9507 5.41775 12.7192 3.89748 11.6876 2.66475C11.4458 2.37628 10.6271 4.04403 9.46445 4.79999C8.82293 5.21647 7.33088 6.10321 7.33088 6.59389V9.76615C7.33088 10.3561 9.69755 10.9803 11.4969 10.9803C12.1557 10.9803 13.1103 7.00295 13.1103 6.37128C13.1103 5.73961 11.0779 5.74796 11.0143 5.58285ZM6.84926 5.62738C6.53236 5.62738 5.40441 5.81289 5.40441 7.0753V9.3237C5.40441 10.5861 6.53236 10.7252 6.84926 10.7252C7.16617 10.7252 6.36765 10.46 6.36765 9.6771V6.7219C6.36765 5.90193 7.16617 5.62738 6.84926 5.62738Z" fill="#290054"/>
</g>
<defs>
<clipPath id="clip0_624_2">
<rect width="7.70588" height="8.34804" fill="white" transform="translate(5.40441 2.63235)"/>
</clipPath>
</defs>
</svg>
