<svg width="16" height="13" viewBox="0 0 16 13" fill="none" xmlns="http://www.w3.org/2000/svg">
<path d="M14.6884 1.06844C13.133 -0.356145 10.6121 -0.356145 9.05675 1.06844L8 2.03611L6.94326 1.06844C5.38791 -0.356145 2.86698 -0.356145 1.31163 1.06844C-0.437209 2.67132 -0.437209 5.26974 1.31163 6.87263L8 13L14.6884 6.87263C16.4372 5.26974 16.4372 2.67132 14.6884 1.06844ZM13.6967 5.92167L8 11.2281L2.30326 5.92167C1.72837 5.39604 1.50698 4.70325 1.50698 3.97146C1.50698 3.23967 1.63535 2.6416 2.21023 2.11412C2.71814 1.64793 3.39907 1.39347 4.12837 1.39347C4.85768 1.39347 5.54047 1.83552 6.04837 2.29985L8.00186 3.99561L9.95349 2.29985C10.4614 1.83366 11.1423 1.39347 11.8735 1.39347C12.6047 1.39347 13.2856 1.64978 13.7935 2.11412C14.3684 2.63975 14.4967 3.23967 14.4967 3.97146C14.4967 4.70325 14.2735 5.39418 13.7005 5.92167H13.6967Z" fill="#73C9E7"/>
</svg>
