<svg width="12" height="12" viewBox="0 0 12 12" fill="none" xmlns="http://www.w3.org/2000/svg">
<path d="M1.85851 10.6324H9.73953" stroke="#73C9E7" stroke-width="1.3" stroke-linecap="round" stroke-linejoin="round"/>
<path d="M0.982841 9.75668C0.982841 10.2405 1.3747 10.6324 1.85851 10.6324" stroke="#73C9E7" stroke-width="1.3" stroke-linecap="round" stroke-linejoin="round"/>
<path d="M10.6152 9.75668C10.6152 10.2405 10.2233 10.6324 9.73953 10.6324" stroke="#73C9E7" stroke-width="1.3" stroke-linecap="round" stroke-linejoin="round"/>
<path d="M0.982841 9.75669V2.75134" stroke="#73C9E7" stroke-width="1.3" stroke-linecap="round" stroke-linejoin="round"/>
<path d="M0.982841 2.75134V1.43784" stroke="#73C9E7" stroke-width="1.3" stroke-linecap="round" stroke-linejoin="round"/>
<path d="M3.60985 2.75134V1.43784" stroke="#73C9E7" stroke-width="1.3" stroke-linecap="round" stroke-linejoin="round"/>
<path d="M1.42068 1H3.17201" stroke="#73C9E7" stroke-width="1.3" stroke-linecap="round" stroke-linejoin="round"/>
<path d="M0.982841 2.75134H5.36118" stroke="#73C9E7" stroke-width="1.3" stroke-linecap="round" stroke-linejoin="round"/>
<path d="M10.6152 1.87567V9.75669" stroke="#73C9E7" stroke-width="1.3" stroke-linecap="round" stroke-linejoin="round"/>
<path d="M0.982841 1.43783C0.982841 1.19571 1.17855 1 1.42068 1" stroke="#73C9E7" stroke-width="1.3" stroke-linecap="round" stroke-linejoin="round"/>
<path d="M3.60984 1.43783C3.60984 1.19571 3.41413 1 3.17201 1" stroke="#73C9E7" stroke-width="1.3" stroke-linecap="round" stroke-linejoin="round"/>
<path d="M10.6152 1.87567C10.6152 1.39186 10.2233 1 9.73953 1" stroke="#73C9E7" stroke-width="1.3" stroke-linecap="round" stroke-linejoin="round"/>
<path d="M5.36119 1.87567C5.36119 1.39186 5.75305 1 6.23685 1" stroke="#73C9E7" stroke-width="1.3" stroke-linecap="round" stroke-linejoin="round"/>
<path d="M9.73952 1H6.23685" stroke="#73C9E7" stroke-width="1.3" stroke-linecap="round" stroke-linejoin="round"/>
<path d="M5.36119 1.87567V2.75134" stroke="#73C9E7" stroke-width="1.3" stroke-linecap="round" stroke-linejoin="round"/>
<path d="M7.11252 2.75134H8.86386" stroke="#73C9E7" stroke-width="1.3" stroke-linecap="round" stroke-linejoin="round"/>
<path d="M4.48551 5.37833V8.00533" stroke="#73C9E7" stroke-width="1.3" stroke-linecap="round" stroke-linejoin="round"/>
<path d="M7.11252 5.37833V8.00533" stroke="#73C9E7" stroke-width="1.3" stroke-linecap="round" stroke-linejoin="round"/>
<path d="M4.48551 8.00537H7.11252" stroke="#73C9E7" stroke-width="1.3" stroke-linecap="round" stroke-linejoin="round"/>
<path d="M7.11252 5.37833H4.48551" stroke="#73C9E7" stroke-width="1.3" stroke-linecap="round" stroke-linejoin="round"/>
<path d="M3.60985 4.50266L4.48552 5.37832" stroke="#73C9E7" stroke-width="1.3" stroke-linecap="round" stroke-linejoin="round"/>
<path d="M7.98819 4.50266L7.11252 5.37832" stroke="#73C9E7" stroke-width="1.3" stroke-linecap="round" stroke-linejoin="round"/>
<path d="M4.48552 8.00537L3.60985 8.88104" stroke="#73C9E7" stroke-width="1.3" stroke-linecap="round" stroke-linejoin="round"/>
<path d="M7.11252 8.00537L7.98819 8.88104" stroke="#73C9E7" stroke-width="1.3" stroke-linecap="round" stroke-linejoin="round"/>
</svg>
