<svg width="154" height="38" viewBox="0 0 154 38" fill="none" xmlns="http://www.w3.org/2000/svg">
<g clip-path="url(#clip0_92_558)">
<mask id="mask0_92_558" style="mask-type:luminance" maskUnits="userSpaceOnUse" x="-260" y="-223" width="674" height="472">
<path d="M413.57 -222.854H-259.251V248.425H413.57V-222.854Z" fill="white"/>
</mask>
<g mask="url(#mask0_92_558)">
<path d="M60.657 0.475006C64.1733 0.475006 67.1302 1.58334 69.5278 3.87917C71.8453 6.17501 73.0441 9.10417 73.0441 12.6667C73.0441 16.2292 71.8453 19.1583 69.5278 21.4542C67.2102 23.75 64.2532 24.9375 60.657 24.9375C57.0607 24.9375 54.1038 23.75 51.7862 21.4542C49.4686 19.1583 48.2698 16.2292 48.2698 12.6667C48.2698 9.10417 49.4686 6.17501 51.7862 3.87917C54.1038 1.58334 57.0607 0.475006 60.657 0.475006ZM60.657 21.0583C63.0545 21.0583 64.9725 20.2667 66.411 18.7625C67.8495 17.2583 68.6487 15.2 68.6487 12.7458C68.6487 10.2125 67.9294 8.23334 66.411 6.65001C64.9725 5.06667 62.9746 4.35417 60.657 4.35417C58.2595 4.35417 56.3414 5.14584 54.9029 6.65001C53.4644 8.23334 52.6653 10.2125 52.6653 12.7458C52.6653 15.2792 53.3845 17.2583 54.9029 18.7625C56.3414 20.2667 58.2595 21.0583 60.657 21.0583Z" fill="#2E0058"/>
</g>
<path d="M117.078 0.791672H121.554L131.943 24.5417H127.308L124.91 18.7625H113.642L111.165 24.5417H106.689L117.078 0.791672ZM119.156 5.70001L115.16 15.0417H123.152L119.156 5.70001Z" fill="#2E0058"/>
<path d="M147.527 4.67084H134.74V0.791672H152.961V4.67084L139.615 20.6625H153.281V24.5417H134.181V20.6625L147.527 4.67084Z" fill="#2E0058"/>
<path d="M1.03891 0.950012H8.47119L14.0654 17.1792H14.1453L19.4198 0.950012H26.7722V24.5417H21.8972V7.83751H21.8173L15.9834 24.5417H11.9076L6.07368 7.99585H5.99376V24.5417H1.03891V0.950012Z" fill="#2E0058"/>
<mask id="mask1_92_558" style="mask-type:luminance" maskUnits="userSpaceOnUse" x="-260" y="-223" width="674" height="472">
<path d="M413.57 -222.854H-259.251V248.425H413.57V-222.854Z" fill="white"/>
</mask>
<g mask="url(#mask1_92_558)">
<path d="M37.3212 9.57918C35.563 9.57918 34.1245 11.0042 34.1245 12.7458C34.1245 14.4875 35.563 15.9125 37.3212 15.9125C39.0794 15.9125 40.5179 14.4875 40.5179 12.7458C40.5978 11.0042 39.1593 9.57918 37.3212 9.57918Z" fill="#2E0058"/>
</g>
<mask id="mask2_92_558" style="mask-type:luminance" maskUnits="userSpaceOnUse" x="-260" y="-223" width="674" height="472">
<path d="M413.57 -222.854H-259.251V248.425H413.57V-222.854Z" fill="white"/>
</mask>
<g mask="url(#mask2_92_558)">
<path d="M89.3472 0.712494C86.0706 0.712494 83.0338 2.05833 80.876 4.19583C78.7182 6.33333 77.3596 9.34166 77.3596 12.5875C77.3596 15.675 78.5584 18.6833 80.7162 20.8208C82.5543 22.7208 85.1116 23.9875 88.1484 24.3833C83.6731 22.1667 80.7162 17.6542 80.7162 12.5875C80.7162 7.91666 84.5522 4.03749 89.3472 4.03749C91.1054 4.03749 92.8635 4.59166 94.302 5.62083C95.6606 6.57083 96.7795 7.99583 97.4188 9.65833H100.935C99.5766 4.51249 94.8615 0.712494 89.3472 0.712494Z" fill="#00CFFF"/>
</g>
<mask id="mask3_92_558" style="mask-type:luminance" maskUnits="userSpaceOnUse" x="-260" y="-223" width="674" height="472">
<path d="M413.57 -222.854H-259.251V248.425H413.57V-222.854Z" fill="white"/>
</mask>
<g mask="url(#mask3_92_558)">
<path d="M93.2631 20.0292C93.5028 20.0292 93.7426 20.0292 93.9823 20.0292C97.0991 20.0292 99.8962 18.1292 101.015 15.2792H97.2589H97.3389C96.6196 17.3375 95.1811 19.0792 93.2631 20.0292Z" fill="#00CFFF"/>
</g>
<mask id="mask4_92_558" style="mask-type:luminance" maskUnits="userSpaceOnUse" x="-260" y="-223" width="674" height="472">
<path d="M413.57 -222.854H-259.251V248.425H413.57V-222.854Z" fill="white"/>
</mask>
<g mask="url(#mask4_92_558)">
<path d="M101.894 3.48333C100.136 2.05833 97.9782 1.10833 95.4209 0.870834C98.8573 2.53333 101.574 5.77917 102.533 9.7375H105.89C105.251 7.28333 103.892 5.06667 101.894 3.48333Z" fill="#2E0058"/>
</g>
<mask id="mask5_92_558" style="mask-type:luminance" maskUnits="userSpaceOnUse" x="-260" y="-223" width="674" height="472">
<path d="M413.57 -222.854H-259.251V248.425H413.57V-222.854Z" fill="white"/>
</mask>
<g mask="url(#mask5_92_558)">
<path d="M94.2221 24.5417C99.7364 24.5417 104.531 20.8208 105.81 15.5958H102.294C101.734 17.1792 100.615 18.525 99.2569 19.5542C97.8184 20.5833 96.0602 21.2167 94.2221 21.2167C91.8246 21.2167 89.6668 20.2667 88.1484 18.6833C86.63 17.1 85.5911 14.9625 85.5911 12.6667C85.5911 9.65833 87.1894 6.8875 89.7468 5.38333C89.6668 5.38333 89.5869 5.38333 89.5869 5.38333C87.589 5.38333 85.7509 6.175 84.4722 7.52083C83.1137 8.86666 82.3145 10.6875 82.3145 12.6667C82.3145 15.8333 83.5932 18.7625 85.671 20.9C87.7488 23.0375 90.7058 24.4625 93.9024 24.5417C93.9824 24.5417 94.1422 24.5417 94.2221 24.5417Z" fill="#2E0058"/>
</g>
<path d="M1.27867 28.975H2.79709V34.1208H5.99377V35.3083H1.27867V28.975Z" fill="#2E0058"/>
<path d="M7.51219 28.7375C7.67203 28.8958 7.75195 29.1333 7.75195 29.3708C7.75195 29.5292 7.75195 29.6083 7.67203 29.7667C7.67203 29.925 7.59211 30.0833 7.51219 30.3208L6.95278 31.6667H6.07369L6.47327 30.2417C6.31344 30.1625 6.23352 30.0833 6.15361 29.925C6.07369 29.7667 5.99377 29.6083 5.99377 29.45C5.99377 29.2125 6.07369 28.975 6.23352 28.8167C6.39336 28.6583 6.63311 28.5 6.87286 28.5C7.11261 28.5 7.35236 28.5792 7.51219 28.7375Z" fill="#2E0058"/>
<path d="M9.4302 35.0708C9.03062 34.8333 8.71095 34.5958 8.4712 34.2C8.23145 33.8042 8.15153 33.4083 8.15153 32.9333C8.15153 32.4583 8.23145 31.9833 8.4712 31.6667C8.71095 31.2708 9.03062 30.9542 9.4302 30.7958C9.82979 30.5583 10.3093 30.4792 10.8687 30.4792C11.4281 30.4792 11.8277 30.5583 12.2273 30.7958C12.6269 31.0333 12.9465 31.35 13.1863 31.6667C13.4261 32.0625 13.506 32.4583 13.506 32.9333C13.506 33.4083 13.4261 33.8833 13.1863 34.2C12.9465 34.5958 12.6269 34.9125 12.2273 35.0708C11.8277 35.3083 11.3482 35.3875 10.8687 35.3875C10.3093 35.3875 9.82979 35.3083 9.4302 35.0708ZM11.7478 33.8833C11.9875 33.6458 12.0675 33.3292 12.0675 32.9333C12.0675 32.5375 11.9875 32.2208 11.7478 31.9833C11.508 31.7458 11.1884 31.5875 10.8687 31.5875C10.549 31.5875 10.2294 31.7458 9.98962 31.9833C9.66995 32.1417 9.59004 32.4583 9.59004 32.9333C9.59004 33.4083 9.66995 33.6458 9.9097 33.8833C10.1495 34.1208 10.4691 34.2792 10.7888 34.2792C11.1085 34.2792 11.508 34.1208 11.7478 33.8833Z" fill="#2E0058"/>
<path d="M15.5039 35.0708C15.1043 34.8333 14.7846 34.5958 14.5449 34.2C14.3051 33.8042 14.2252 33.4083 14.2252 32.9333C14.2252 32.4583 14.3051 31.9833 14.5449 31.6667C14.7846 31.2708 15.1043 30.9542 15.5039 30.7958C15.9035 30.5583 16.383 30.4792 16.9424 30.4792C17.5018 30.4792 17.9014 30.5583 18.301 30.7958C18.7006 31.0333 18.9403 31.35 19.1801 31.7458L18.0612 32.3C17.8215 31.825 17.4219 31.5875 16.9424 31.5875C16.5428 31.5875 16.2231 31.7458 15.9834 31.9833C15.7436 32.2208 15.5838 32.5375 15.5838 33.0125C15.5838 33.4083 15.7436 33.725 15.9834 34.0417C16.2231 34.3583 16.5428 34.4375 16.9424 34.4375C17.4219 34.4375 17.8215 34.2 18.0612 33.725L19.1801 34.3583C19.0202 34.7542 18.7006 35.0708 18.301 35.2292C17.9014 35.4667 17.4219 35.5458 16.9424 35.5458C16.383 35.3875 15.9035 35.3083 15.5039 35.0708Z" fill="#2E0058"/>
<path d="M20.8583 35.0708C20.4587 34.8333 20.1391 34.5958 19.8993 34.2C19.6596 33.8042 19.5797 33.4083 19.5797 32.9333C19.5797 32.4583 19.6596 31.9833 19.8993 31.6667C20.1391 31.2708 20.4587 30.9542 20.8583 30.7958C21.2579 30.5583 21.7374 30.4792 22.2968 30.4792C22.8563 30.4792 23.2558 30.5583 23.6554 30.7958C24.055 31.0333 24.2948 31.35 24.5345 31.7458L23.4157 32.3C23.1759 31.825 22.7763 31.5875 22.2968 31.5875C21.8972 31.5875 21.5776 31.7458 21.3378 31.9833C21.0981 32.2208 20.9382 32.5375 20.9382 33.0125C20.9382 33.4083 21.0981 33.725 21.3378 34.0417C21.5776 34.3583 21.8972 34.4375 22.2968 34.4375C22.7763 34.4375 23.1759 34.2 23.4157 33.725L24.5345 34.3583C24.3747 34.7542 24.055 35.0708 23.6554 35.2292C23.2558 35.4667 22.7763 35.5458 22.2968 35.5458C21.7374 35.3875 21.2579 35.3083 20.8583 35.0708Z" fill="#2E0058"/>
<path d="M29.0898 30.9542C29.4894 31.35 29.7291 31.825 29.7291 32.6167V35.3875H28.3705V34.7542C28.1308 35.2292 27.5714 35.4667 26.8521 35.4667C26.4525 35.4667 26.1329 35.3875 25.8931 35.3083C25.6533 35.15 25.4136 34.9917 25.2538 34.7542C25.0939 34.5167 25.014 34.2792 25.014 33.9625C25.014 33.4875 25.1738 33.1708 25.4935 32.8542C25.8132 32.6167 26.3726 32.4583 27.0919 32.4583H28.2107C28.2107 32.1417 28.1308 31.9042 27.891 31.7458C27.7312 31.5875 27.4115 31.5083 27.0119 31.5083C26.7722 31.5083 26.4525 31.5875 26.2128 31.6667C25.973 31.7458 25.7333 31.825 25.5734 31.9833L25.0939 30.9542C25.3337 30.7958 25.6533 30.6375 26.0529 30.4792C26.4525 30.4 26.8521 30.3208 27.2517 30.3208C28.0509 30.4 28.6902 30.5583 29.0898 30.9542ZM27.891 34.2792C28.0509 34.2 28.2107 33.9625 28.2906 33.8042V33.3292H27.3316C26.7722 33.3292 26.4525 33.4875 26.4525 33.8833C26.4525 34.0417 26.5324 34.2 26.6923 34.2792C26.8521 34.3583 27.0119 34.4375 27.2517 34.4375C27.4115 34.4375 27.6513 34.4375 27.891 34.2792Z" fill="#2E0058"/>
<path d="M31.4873 35.3083C31.0877 35.2292 30.768 35.0708 30.5283 34.9125L31.0078 33.8833C31.2475 34.0417 31.4873 34.1208 31.807 34.2C32.1266 34.2792 32.4463 34.3583 32.686 34.3583C33.3254 34.3583 33.5651 34.2 33.5651 33.8833C33.5651 33.725 33.4852 33.6458 33.3254 33.5667C33.1655 33.4875 32.9258 33.4875 32.5262 33.4083C32.1266 33.3292 31.807 33.25 31.4873 33.1708C31.2475 33.0917 31.0078 32.9333 30.768 32.775C30.6082 32.5375 30.4484 32.3 30.4484 31.9042C30.4484 31.5875 30.5283 31.35 30.6881 31.1125C30.848 30.875 31.1676 30.7167 31.4873 30.5583C31.807 30.4 32.2065 30.3208 32.686 30.3208C33.0057 30.3208 33.4053 30.3208 33.725 30.4C34.0446 30.4792 34.3643 30.5583 34.604 30.7167L34.3643 31.825C33.9647 31.5875 33.4852 31.4292 32.9258 31.4292C32.6061 31.4292 32.3664 31.5083 32.2065 31.5875C32.0467 31.6667 31.9668 31.7458 31.9668 31.9042C31.9668 32.0625 32.0467 32.1417 32.2065 32.2208C32.3664 32.3 32.6061 32.3 33.0057 32.3792C33.4053 32.4583 33.725 32.5375 33.9647 32.6167C34.2045 32.6958 34.4442 32.8542 34.604 33.0125C34.7639 33.25 34.9237 33.4875 34.9237 33.8833C34.9237 34.2 34.8438 34.4375 34.684 34.675C34.5241 34.9125 34.2045 35.0708 33.8848 35.2292C33.5651 35.3875 33.0856 35.3875 32.6061 35.3875C32.2065 35.3875 31.807 35.3875 31.4873 35.3083Z" fill="#2E0058"/>
<path d="M35.9626 29.5292C35.8028 29.3708 35.7229 29.2125 35.7229 28.975C35.7229 28.7375 35.8028 28.5792 35.9626 28.4208C36.1225 28.2625 36.3622 28.1833 36.602 28.1833C36.8417 28.1833 37.0815 28.2625 37.2413 28.4208C37.4011 28.5792 37.4811 28.7375 37.4811 28.975C37.4811 29.2125 37.4011 29.3708 37.2413 29.5292C37.0815 29.6875 36.8417 29.7667 36.602 29.7667C36.3622 29.7667 36.1225 29.6875 35.9626 29.5292ZM35.8827 30.4792H37.3212V35.3875H35.8827V30.4792Z" fill="#2E0058"/>
<path d="M39.5589 35.0708C39.1593 34.8333 38.8396 34.5958 38.5999 34.2C38.3601 33.8042 38.2802 33.4083 38.2802 32.9333C38.2802 32.4583 38.3601 31.9833 38.5999 31.6667C38.8396 31.2708 39.1593 30.9542 39.5589 30.7958C39.9585 30.5583 40.438 30.4792 40.9974 30.4792C41.5568 30.4792 41.9564 30.5583 42.356 30.7958C42.7556 31.0333 43.0752 31.35 43.315 31.6667C43.5548 32.0625 43.6347 32.4583 43.6347 32.9333C43.6347 33.4083 43.5548 33.8833 43.315 34.2C43.0752 34.5958 42.7556 34.9125 42.356 35.0708C41.9564 35.3083 41.4769 35.3875 40.9974 35.3875C40.438 35.3875 40.0384 35.3083 39.5589 35.0708ZM41.8765 33.8833C42.1162 33.6458 42.1962 33.3292 42.1962 32.9333C42.1962 32.5375 42.1162 32.2208 41.8765 31.9833C41.6367 31.7458 41.3171 31.5875 40.9974 31.5875C40.6777 31.5875 40.3581 31.7458 40.1183 31.9833C39.8786 32.2208 39.7987 32.5375 39.7987 32.9333C39.7987 33.3292 39.8786 33.6458 40.1183 33.8833C40.3581 34.1208 40.6777 34.2792 40.9974 34.2792C41.3171 34.2792 41.6367 34.1208 41.8765 33.8833Z" fill="#2E0058"/>
<path d="M49.1489 30.9542C49.5485 31.35 49.7084 31.825 49.7084 32.5375V35.3083H48.2699V32.6958C48.2699 32.3 48.1899 31.9833 48.0301 31.825C47.8703 31.6667 47.6305 31.5083 47.3108 31.5083C46.9113 31.5083 46.6715 31.5875 46.4318 31.825C46.192 32.0625 46.1121 32.3792 46.1121 32.775V35.2292H44.6736V30.3208H46.0322V30.875C46.192 30.6375 46.4318 30.4792 46.7514 30.4C47.0711 30.3208 47.3108 30.2417 47.7104 30.2417C48.2699 30.4 48.7494 30.5583 49.1489 30.9542Z" fill="#2E0058"/>
<path d="M58.6591 28.5792V35.3083H57.3005V34.7542C56.9808 35.15 56.4214 35.3875 55.782 35.3875C55.3025 35.3875 54.903 35.3083 54.5034 35.0708C54.1038 34.8333 53.864 34.5958 53.6243 34.2C53.3845 33.8042 53.3046 33.4083 53.3046 32.8542C53.3046 32.3792 53.3845 31.9042 53.6243 31.5083C53.864 31.1125 54.1038 30.7958 54.5034 30.6375C54.903 30.4 55.3025 30.3208 55.782 30.3208C56.4214 30.3208 56.9009 30.5583 57.3005 30.875V28.5H58.6591V28.5792ZM56.9009 33.8833C57.1406 33.6458 57.2206 33.3292 57.2206 32.9333C57.2206 32.5375 57.1406 32.2208 56.9009 31.9833C56.6611 31.7458 56.3415 31.5875 56.0218 31.5875C55.6222 31.5875 55.3825 31.7458 55.1427 31.9833C54.903 32.2208 54.823 32.5375 54.823 32.9333C54.823 33.3292 54.903 33.6458 55.1427 33.8833C55.3825 34.1208 55.7021 34.2792 56.0218 34.2792C56.3415 34.2792 56.6611 34.1208 56.9009 33.8833Z" fill="#2E0058"/>
<path d="M61.1365 28.7375C61.2963 28.8958 61.3762 29.1333 61.3762 29.3708C61.3762 29.5292 61.3762 29.6083 61.2963 29.7667C61.2963 29.925 61.2164 30.0833 61.1365 30.3208L60.5771 31.6667H59.698L60.0976 30.2417C59.9377 30.1625 59.8578 30.0833 59.7779 29.925C59.698 29.7667 59.6181 29.6083 59.6181 29.45C59.6181 29.2125 59.698 28.975 59.8578 28.8167C60.0176 28.6583 60.2574 28.5792 60.4971 28.5792C60.7369 28.5 60.9766 28.5792 61.1365 28.7375Z" fill="#2E0058"/>
<path d="M67.37 30.4792V35.3875H66.0114V34.8333C65.8516 35.0708 65.6118 35.2292 65.2922 35.3083C65.0524 35.3875 64.7327 35.4667 64.4131 35.4667C63.7737 35.4667 63.2143 35.3083 62.8947 34.9125C62.575 34.5167 62.3352 33.9625 62.3352 33.25V30.4792H63.7737V33.0125C63.7737 33.8042 64.0934 34.2 64.8127 34.2C65.1323 34.2 65.452 34.1208 65.6118 33.8833C65.8516 33.6458 65.9315 33.3292 65.9315 32.9333V30.4792H67.37Z" fill="#2E0058"/>
<path d="M73.2039 30.9542C73.6035 31.35 73.7634 31.825 73.7634 32.5375V35.3083H72.3249V32.6958C72.3249 32.3 72.2449 31.9833 72.0851 31.825C71.9253 31.6667 71.6855 31.5083 71.3659 31.5083C70.9663 31.5083 70.7265 31.5875 70.4868 31.825C70.247 32.0625 70.1671 32.3792 70.1671 32.775V35.2292H68.7286V30.3208H70.0872V30.875C70.247 30.6375 70.4868 30.4792 70.8064 30.4C71.1261 30.3208 71.3659 30.2417 71.7654 30.2417C72.3249 30.4 72.8044 30.5583 73.2039 30.9542Z" fill="#2E0058"/>
<path d="M82.1546 30.9542C82.5542 31.35 82.7141 31.825 82.7141 32.5375V35.3083H81.2756V32.6958C81.2756 32.3 81.1956 31.9833 81.0358 31.825C80.876 31.6667 80.6362 31.5083 80.3166 31.5083C79.917 31.5083 79.6772 31.5875 79.4375 31.825C79.1977 32.0625 79.1178 32.3792 79.1178 32.775V35.2292H77.6793V30.3208H79.0379V30.875C79.1977 30.6375 79.4375 30.4792 79.7571 30.4C80.0768 30.3208 80.3166 30.2417 80.7161 30.2417C81.2756 30.4 81.7551 30.5583 82.1546 30.9542Z" fill="#2E0058"/>
<path d="M85.0317 35.0708C84.6321 34.8333 84.3124 34.5958 84.0727 34.2C83.8329 33.8042 83.753 33.4083 83.753 32.9333C83.753 32.4583 83.8329 31.9833 84.0727 31.6667C84.3124 31.2708 84.6321 30.9542 85.0317 30.7958C85.4312 30.5583 85.9107 30.4792 86.4702 30.4792C87.0296 30.4792 87.4292 30.5583 87.8288 30.7958C88.2283 31.0333 88.548 31.35 88.7878 31.6667C89.0275 32.0625 89.1074 32.4583 89.1074 32.9333C89.1074 33.4083 89.0275 33.8833 88.7878 34.2C88.548 34.5958 88.2283 34.9125 87.8288 35.0708C87.4292 35.3083 86.9497 35.3875 86.4702 35.3875C85.9107 35.3875 85.4312 35.3083 85.0317 35.0708ZM87.2693 33.8833C87.5091 33.6458 87.589 33.3292 87.589 32.9333C87.589 32.5375 87.5091 32.2208 87.2693 31.9833C87.0296 31.7458 86.7099 31.5875 86.3902 31.5875C85.9907 31.5875 85.7509 31.7458 85.5112 31.9833C85.2714 32.2208 85.1915 32.5375 85.1915 32.9333C85.1915 33.3292 85.3513 33.6458 85.5112 33.8833C85.671 34.1208 86.0706 34.2792 86.3902 34.2792C86.7898 34.2792 87.0296 34.1208 87.2693 33.8833Z" fill="#2E0058"/>
<path d="M95.0213 30.4792V35.3875H93.6627V34.8333C93.5029 35.0708 93.2631 35.2292 92.9434 35.3083C92.7037 35.3875 92.384 35.4667 92.0644 35.4667C91.425 35.4667 90.8656 35.3083 90.5459 34.9125C90.1463 34.5167 89.9865 33.9625 89.9865 33.25V30.4792H91.425V33.0125C91.425 33.8042 91.7447 34.2 92.4639 34.2C92.7836 34.2 93.1033 34.1208 93.2631 33.8833C93.5029 33.6458 93.5828 33.3292 93.5828 32.9333V30.4792H95.0213Z" fill="#2E0058"/>
<path d="M101.255 30.4792L99.177 35.3875H97.6585L95.5807 30.4792H97.0991L98.4577 33.8042L99.8962 30.4792H101.255Z" fill="#2E0058"/>
<path d="M106.529 33.3292H102.773C102.853 33.6458 103.013 33.8833 103.253 34.0417C103.492 34.2 103.812 34.2792 104.212 34.2792C104.451 34.2792 104.691 34.2792 104.931 34.2C105.171 34.1208 105.331 34.0417 105.49 33.8042L106.29 34.5958C105.81 35.15 105.171 35.3875 104.212 35.3875C103.652 35.3875 103.173 35.3083 102.693 35.0708C102.294 34.8333 101.894 34.5958 101.734 34.2C101.495 33.8042 101.415 33.4083 101.415 32.9333C101.415 32.4583 101.495 31.9833 101.734 31.6667C101.974 31.2708 102.294 30.9542 102.693 30.7958C103.093 30.5583 103.572 30.4792 104.052 30.4792C104.531 30.4792 105.011 30.5583 105.331 30.7958C105.73 31.0333 106.05 31.2708 106.29 31.6667C106.529 32.0625 106.609 32.5375 106.609 33.0125C106.609 32.9333 106.609 33.0917 106.529 33.3292ZM103.173 31.7458C102.933 31.9042 102.853 32.1417 102.773 32.4583H105.171C105.091 32.1417 105.011 31.9042 104.771 31.7458C104.531 31.5875 104.292 31.4292 103.972 31.4292C103.652 31.4292 103.413 31.5083 103.173 31.7458Z" fill="#2E0058"/>
<path d="M111.165 30.9542C111.564 31.35 111.804 31.825 111.804 32.6167V35.3875H110.445V34.7542C110.205 35.2292 109.646 35.4667 108.927 35.4667C108.527 35.4667 108.208 35.3875 107.968 35.3083C107.728 35.15 107.488 34.9917 107.328 34.7542C107.169 34.5167 107.089 34.2792 107.089 33.9625C107.089 33.4875 107.249 33.1708 107.568 32.8542C107.888 32.6167 108.447 32.4583 109.167 32.4583H110.285C110.285 32.1417 110.206 31.9042 109.966 31.7458C109.806 31.5875 109.486 31.5083 109.087 31.5083C108.847 31.5083 108.527 31.5875 108.287 31.6667C108.048 31.7458 107.808 31.825 107.648 31.9833L107.169 30.9542C107.408 30.7958 107.728 30.6375 108.128 30.4792C108.527 30.4 108.927 30.3208 109.326 30.3208C110.126 30.4 110.765 30.5583 111.165 30.9542ZM109.966 34.2792C110.126 34.2 110.285 33.9625 110.365 33.8042V33.3292H109.406C108.847 33.3292 108.527 33.4875 108.527 33.8833C108.527 34.0417 108.607 34.2 108.767 34.2792C108.927 34.3583 109.087 34.4375 109.326 34.4375C109.566 34.4375 109.726 34.4375 109.966 34.2792Z" fill="#2E0058"/>
<path d="M118.037 30.4792V35.3875H116.679V34.8333C116.519 35.0708 116.279 35.2292 115.96 35.3083C115.72 35.3875 115.4 35.4667 115.08 35.4667C114.441 35.4667 113.882 35.3083 113.562 34.9125C113.162 34.5167 113.003 33.9625 113.003 33.25V30.4792H114.441V33.0125C114.441 33.8042 114.761 34.2 115.48 34.2C115.8 34.2 116.119 34.1208 116.279 33.8833C116.519 33.6458 116.599 33.3292 116.599 32.9333V30.4792H118.037Z" fill="#2E0058"/>
<path d="M126.988 28.5792V35.3083H125.629V34.7542C125.31 35.15 124.75 35.3875 124.111 35.3875C123.632 35.3875 123.232 35.3083 122.832 35.0708C122.433 34.8333 122.193 34.5958 121.953 34.2C121.714 33.8042 121.634 33.4083 121.634 32.8542C121.634 32.3792 121.714 31.9042 121.953 31.5083C122.193 31.1125 122.433 30.7958 122.832 30.6375C123.232 30.4792 123.632 30.3208 124.111 30.3208C124.75 30.3208 125.23 30.5583 125.629 30.875V28.5H126.988V28.5792ZM125.23 33.8833C125.47 33.6458 125.55 33.3292 125.55 32.9333C125.55 32.5375 125.47 32.2208 125.23 31.9833C124.99 31.7458 124.67 31.5875 124.351 31.5875C123.951 31.5875 123.711 31.7458 123.472 31.9833C123.232 32.2208 123.072 32.4583 123.072 32.9333C123.072 33.4083 123.152 33.6458 123.392 33.8833C123.632 34.1208 123.951 34.2792 124.271 34.2792C124.75 34.2792 124.99 34.1208 125.23 33.8833Z" fill="#2E0058"/>
<path d="M133.142 33.3292H129.386C129.465 33.6458 129.625 33.8833 129.865 34.0417C130.105 34.2 130.424 34.2792 130.824 34.2792C131.064 34.2792 131.304 34.2792 131.543 34.2C131.783 34.1208 131.943 34.0417 132.103 33.8042L132.902 34.5958C132.422 35.15 131.783 35.3875 130.824 35.3875C130.265 35.3875 129.785 35.3083 129.306 35.0708C128.906 34.8333 128.506 34.5958 128.347 34.2C128.107 33.8042 128.027 33.4083 128.027 32.9333C128.027 32.4583 128.107 31.9833 128.347 31.6667C128.586 31.2708 128.906 30.9542 129.306 30.7958C129.705 30.5583 130.185 30.4792 130.664 30.4792C131.144 30.4792 131.623 30.5583 131.943 30.7958C132.343 31.0333 132.662 31.2708 132.902 31.6667C133.142 32.0625 133.222 32.5375 133.222 33.0125C133.222 32.9333 133.142 33.0917 133.142 33.3292ZM129.785 31.7458C129.545 31.9042 129.465 32.1417 129.386 32.4583H131.783C131.703 32.1417 131.623 31.9042 131.383 31.7458C131.144 31.5875 130.904 31.4292 130.584 31.4292C130.265 31.4292 130.025 31.5083 129.785 31.7458ZM130.984 28.5H132.502L130.824 29.8458H129.705L130.984 28.5Z" fill="#2E0058"/>
<path d="M138.336 30.7167C138.736 30.9542 138.976 31.1917 139.215 31.5875C139.455 31.9833 139.535 32.3792 139.535 32.9333C139.535 33.4083 139.455 33.8833 139.215 34.2792C138.976 34.675 138.736 34.9917 138.336 35.15C137.937 35.3083 137.537 35.4667 137.058 35.4667C136.418 35.4667 135.939 35.3083 135.539 34.9125V37.2083H134.101V30.5583H135.459V31.1125C135.779 30.7167 136.338 30.4792 136.978 30.4792C137.537 30.4 137.937 30.4792 138.336 30.7167ZM137.697 33.8833C137.937 33.6458 138.017 33.3292 138.017 32.9333C138.017 32.5375 137.937 32.2208 137.697 31.9833C137.457 31.7458 137.138 31.5875 136.818 31.5875C136.498 31.5875 136.179 31.7458 135.939 31.9833C135.699 32.2208 135.619 32.5375 135.619 32.9333C135.619 33.3292 135.699 33.6458 135.939 33.8833C136.179 34.1208 136.498 34.2792 136.818 34.2792C137.138 34.2792 137.457 34.1208 137.697 33.8833Z" fill="#2E0058"/>
<path d="M144.17 30.9542C144.57 31.35 144.81 31.825 144.81 32.6167V35.3875H143.451V34.7542C143.211 35.2292 142.652 35.4667 141.933 35.4667C141.533 35.4667 141.213 35.3875 140.974 35.3083C140.734 35.15 140.494 34.9917 140.334 34.7542C140.174 34.5167 140.094 34.2792 140.094 33.9625C140.094 33.4875 140.254 33.1708 140.574 32.8542C140.894 32.6167 141.453 32.4583 142.172 32.4583H143.291C143.291 32.1417 143.211 31.9042 142.971 31.7458C142.812 31.5875 142.492 31.5083 142.092 31.5083C141.853 31.5083 141.533 31.5875 141.293 31.6667C141.053 31.7458 140.814 31.825 140.654 31.9833L140.174 30.9542C140.414 30.7958 140.734 30.6375 141.133 30.4792C141.533 30.4 141.933 30.3208 142.332 30.3208C143.131 30.4 143.771 30.5583 144.17 30.9542ZM142.971 34.2792C143.131 34.2 143.291 33.9625 143.371 33.8042V33.3292H142.412C141.853 33.3292 141.533 33.4875 141.533 33.8833C141.533 34.0417 141.613 34.2 141.773 34.2792C141.933 34.3583 142.092 34.4375 142.332 34.4375C142.492 34.4375 142.732 34.4375 142.971 34.2792Z" fill="#2E0058"/>
<path d="M148.166 30.5583C148.486 30.4 148.805 30.4 149.205 30.4V31.6667C149.045 31.6667 148.965 31.6667 148.885 31.6667C148.486 31.6667 148.166 31.7458 147.926 31.9833C147.687 32.2208 147.607 32.5375 147.607 33.0125V35.3083H146.168V30.4H147.527V31.0333C147.607 30.875 147.846 30.7167 148.166 30.5583Z" fill="#2E0058"/>
<path d="M153.361 35.15C153.201 35.2292 153.041 35.3083 152.881 35.3875C152.641 35.4667 152.482 35.4667 152.242 35.4667C151.682 35.4667 151.203 35.3083 150.883 34.9917C150.564 34.675 150.404 34.2792 150.404 33.6458V31.6667H149.605V30.5583H150.404V29.3708H151.842V30.5583H153.041V31.6667H151.842V33.6458C151.842 33.8833 151.922 34.0417 152.002 34.1208C152.082 34.2 152.242 34.2792 152.482 34.2792C152.721 34.2792 152.881 34.2 153.041 34.1208L153.361 35.15Z" fill="#2E0058"/>
</g>
<defs>
<clipPath id="clip0_92_558">
<rect width="154" height="38" fill="white"/>
</clipPath>
</defs>
</svg>
