<svg width="275" height="71" viewBox="0 0 275 71" fill="none" xmlns="http://www.w3.org/2000/svg">
<mask id="mask0_38_15" style="mask-type:luminance" maskUnits="userSpaceOnUse" x="0" y="0" width="275" height="71">
<path d="M275 0H0V71H275V0Z" fill="white"/>
</mask>
<g mask="url(#mask0_38_15)">
<path d="M107.329 51.12C111.603 51.12 115.085 49.7394 117.736 46.9586C120.387 44.1778 121.712 40.5292 121.712 36.0128C121.712 31.4964 120.387 27.828 117.736 25.0078C115.065 22.2072 111.603 20.8069 107.329 20.8069C103.056 20.8069 99.5737 22.2072 96.9227 25.0078C94.2716 27.8083 92.946 31.4767 92.946 36.0128C92.946 40.5489 94.2716 44.1778 96.9227 46.9586C99.5737 49.7394 103.056 51.12 107.329 51.12ZM107.329 13.8055C113.779 13.8055 119.081 15.8961 123.295 20.0969C127.509 24.2978 129.606 29.5833 129.606 35.993C129.606 42.4028 127.509 47.7475 123.295 51.9089C119.081 56.0703 113.759 58.1608 107.329 58.1608C100.899 58.1608 95.5773 56.0703 91.3633 51.9089C87.1493 47.7475 85.0522 42.4225 85.0522 35.993C85.0522 29.5636 87.1493 24.2978 91.3633 20.0969C95.5773 15.8961 100.899 13.8055 107.329 13.8055Z" fill="#73C9E7"/>
<path d="M213.808 23.2919L206.586 40.2333H221.049L213.827 23.2919H213.808ZM209.969 14.4958H218.002L236.718 57.51H228.349L223.957 47.0966H203.698L199.306 57.51H191.273L209.969 14.4958Z" fill="#73C9E7"/>
<path d="M264.475 21.4775H241.308V14.4958H274.209V21.4775L250.171 50.4494H274.822V57.51H240.437V50.4494L264.475 21.4775Z" fill="#73C9E7"/>
<path d="M0 14.6931H13.3147L23.3849 44.1186H23.5234L33.0396 14.6931H46.3543V57.4903H37.5108V27.1575H37.3723L26.8273 57.4903H19.5468L8.98201 27.4533H8.86331V57.4903H0V14.6931Z" fill="#73C9E7"/>
<path d="M65.3867 30.3525C62.2014 30.3525 59.6097 32.9361 59.6097 36.1114C59.6097 39.2866 62.2014 41.8703 65.3867 41.8703C68.5719 41.8703 71.1637 39.2866 71.1637 36.1114C71.1637 32.9361 68.5719 30.3525 65.3867 30.3525Z" fill="#73C9E7"/>
<path d="M182.014 30.9639C182.014 30.9639 182.034 31.0822 182.054 31.1414H188.978C186.901 21.9114 178.809 14.2592 167.117 14.2592C174.397 16.7442 180.254 22.9567 182.014 30.9639ZM167.097 57.4508C155.424 57.0958 146.086 47.353 146.086 35.855C146.086 27.7492 153.347 21.3986 161.478 22.6017C156.433 25.0078 153.031 30.175 153.031 35.855C153.031 43.8228 159.638 50.548 167.79 50.548C174.219 50.548 179.818 46.2683 181.757 40.5883H188.978C186.723 50.6861 177.543 57.7861 167.097 57.4508Z" fill="white"/>
<path d="M180.412 40.1741H173.527C172.241 43.9608 169.451 47.0178 165.87 48.7139C172.182 49.6211 178.216 45.9133 180.392 40.1939M137.856 35.4211C137.856 23.5089 147.59 13.8253 159.559 13.8253C169.748 13.8253 178.513 20.8661 180.728 30.6089C180.728 30.6286 180.728 30.668 180.728 30.6878H173.507C171.45 24.6922 165.633 20.728 159.54 20.728C151.408 20.728 144.8 27.3153 144.8 35.4211C144.8 45.1836 151.013 53.8416 160.232 57.0169C146.66 57.0169 137.856 46.6233 137.856 35.4211Z" fill="#73C9E7"/>
</g>
</svg>
