<svg width="86" height="15" viewBox="0 0 86 15" fill="none" xmlns="http://www.w3.org/2000/svg">
<path d="M18.8849 1.81818H21.5398L24.3438 8.65909H24.4631L27.267 1.81818H29.9219V12H27.8338V5.37287H27.7493L25.1143 11.9503H23.6925L21.0575 5.34801H20.973V12H18.8849V1.81818ZM32.8936 8.73366C32.5655 8.73366 32.2838 8.61766 32.0485 8.38565C31.8165 8.15033 31.7005 7.86861 31.7005 7.54048C31.7005 7.21567 31.8165 6.93726 32.0485 6.70526C32.2838 6.47325 32.5655 6.35724 32.8936 6.35724C33.2118 6.35724 33.4902 6.47325 33.7289 6.70526C33.9675 6.93726 34.0868 7.21567 34.0868 7.54048C34.0868 7.75923 34.0305 7.95975 33.9178 8.14205C33.8084 8.32102 33.6642 8.4652 33.4853 8.57457C33.3063 8.68063 33.1091 8.73366 32.8936 8.73366ZM44.8491 5.38281H42.6715C42.6317 5.10109 42.5505 4.85085 42.4279 4.6321C42.3053 4.41004 42.1478 4.22112 41.9556 4.06534C41.7634 3.90956 41.5413 3.79025 41.2894 3.70739C41.0408 3.62453 40.7707 3.5831 40.479 3.5831C39.9521 3.5831 39.493 3.71402 39.1019 3.97585C38.7108 4.23437 38.4076 4.61222 38.1921 5.10938C37.9767 5.60322 37.869 6.20312 37.869 6.90909C37.869 7.63494 37.9767 8.24479 38.1921 8.73864C38.4109 9.23248 38.7158 9.60535 39.1069 9.85724C39.498 10.1091 39.9504 10.2351 40.4641 10.2351C40.7525 10.2351 41.0193 10.197 41.2646 10.1207C41.5131 10.0445 41.7335 9.93348 41.9258 9.78764C42.118 9.63849 42.2771 9.45786 42.4031 9.24574C42.5323 9.03362 42.6218 8.79167 42.6715 8.51989L44.8491 8.52983C44.7927 8.99716 44.6519 9.44792 44.4265 9.8821C44.2044 10.313 43.9045 10.6991 43.5266 11.0405C43.1521 11.3786 42.7047 11.647 42.1843 11.8459C41.6673 12.0414 41.0823 12.1392 40.4293 12.1392C39.5212 12.1392 38.7092 11.9337 37.9933 11.5227C37.2807 11.1117 36.7172 10.5168 36.3029 9.73793C35.8919 8.95904 35.6864 8.0161 35.6864 6.90909C35.6864 5.79877 35.8952 4.85417 36.3129 4.07528C36.7305 3.2964 37.2972 2.70312 38.0131 2.29545C38.729 1.88447 39.5344 1.67898 40.4293 1.67898C41.0193 1.67898 41.5662 1.76184 42.07 1.92756C42.5771 2.09328 43.0262 2.33523 43.4173 2.65341C43.8084 2.96828 44.1265 3.3544 44.3718 3.81179C44.6204 4.26918 44.7795 4.79285 44.8491 5.38281ZM46.3928 12V1.81818H48.5455V6.01918H52.9155V1.81818H55.0632V12H52.9155V7.79403H48.5455V12H46.3928ZM56.8381 12V1.81818H63.6989V3.59304H58.9908V6.01918H63.3459V7.79403H58.9908V10.2251H63.7188V12H56.8381ZM74.394 5.38281H72.2164C72.1767 5.10109 72.0955 4.85085 71.9728 4.6321C71.8502 4.41004 71.6928 4.22112 71.5005 4.06534C71.3083 3.90956 71.0862 3.79025 70.8343 3.70739C70.5858 3.62453 70.3156 3.5831 70.024 3.5831C69.497 3.5831 69.0379 3.71402 68.6468 3.97585C68.2557 4.23437 67.9525 4.61222 67.737 5.10938C67.5216 5.60322 67.4139 6.20312 67.4139 6.90909C67.4139 7.63494 67.5216 8.24479 67.737 8.73864C67.9558 9.23248 68.2607 9.60535 68.6518 9.85724C69.0429 10.1091 69.4953 10.2351 70.0091 10.2351C70.2974 10.2351 70.5642 10.197 70.8095 10.1207C71.0581 10.0445 71.2785 9.93348 71.4707 9.78764C71.6629 9.63849 71.822 9.45786 71.948 9.24574C72.0772 9.03362 72.1667 8.79167 72.2164 8.51989L74.394 8.52983C74.3377 8.99716 74.1968 9.44792 73.9714 9.8821C73.7493 10.313 73.4494 10.6991 73.0716 11.0405C72.697 11.3786 72.2496 11.647 71.7292 11.8459C71.2122 12.0414 70.6272 12.1392 69.9743 12.1392C69.0661 12.1392 68.2541 11.9337 67.5382 11.5227C66.8256 11.1117 66.2621 10.5168 65.8478 9.73793C65.4368 8.95904 65.2314 8.0161 65.2314 6.90909C65.2314 5.79877 65.4402 4.85417 65.8578 4.07528C66.2754 3.2964 66.8422 2.70312 67.5581 2.29545C68.274 1.88447 69.0794 1.67898 69.9743 1.67898C70.5642 1.67898 71.1111 1.76184 71.6149 1.92756C72.122 2.09328 72.5711 2.33523 72.9622 2.65341C73.3533 2.96828 73.6715 3.3544 73.9167 3.81179C74.1653 4.26918 74.3244 4.79285 74.394 5.38281ZM75.9377 12V1.81818H78.0904V6.30753H78.2246L81.8887 1.81818H84.4689L80.6905 6.37713L84.5137 12H81.9384L79.1493 7.81392L78.0904 9.10653V12H75.9377Z" fill="#290054"/>
<path d="M14.125 7.06373C14.125 7.65424 13.1433 8.1102 12.9987 8.65587C12.8542 9.20153 13.4672 10.1035 13.1806 10.5968C12.8941 11.0902 11.8152 11.003 11.4066 11.4091C10.998 11.8152 11.0952 12.8916 10.5943 13.1831C10.0935 13.4746 9.21648 12.8517 8.65337 13.0012C8.09027 13.1507 7.65424 14.1275 7.06123 14.1275C6.46823 14.1275 6.01476 13.1458 5.46909 13.0012C4.92343 12.8567 4.02146 13.4697 3.52813 13.1831C3.03479 12.8966 3.12199 11.8177 2.71586 11.4091C2.30973 11.0005 1.23335 11.0976 0.94183 10.5968C0.650311 10.096 1.27321 9.21897 1.12372 8.65587C0.974221 8.09276 0 7.65424 0 7.06373C0 6.47321 0.981696 6.01725 1.12621 5.47158C1.27072 4.92592 0.657786 4.02396 0.944322 3.53062C1.23086 3.03728 2.30973 3.12448 2.71835 2.71835C3.12698 2.31222 3.0298 1.23584 3.53062 0.944322C4.03143 0.652803 4.90848 1.27571 5.47158 1.12621C6.03469 0.976713 6.47072 0 7.06373 0C7.65673 0 8.1102 0.981696 8.65587 1.12621C9.20153 1.27072 10.1035 0.657786 10.5968 0.944322C11.0902 1.23086 11.003 2.30973 11.4091 2.71835C11.8152 3.12698 12.8916 3.0298 13.1831 3.53062C13.4746 4.03143 12.8517 4.90848 13.0012 5.47158C13.1507 6.03469 14.1275 6.47072 14.1275 7.06373H14.125Z" fill="#290054"/>
<path d="M4.01893 4.23822H5.76804L7.09109 8.12265H7.10604L8.35683 4.23822H10.1059V9.8892H8.94236V5.88269H8.92492L7.54207 9.8892H6.5828L5.19995 5.92255H5.18251V9.8892H4.01893V4.23822Z" fill="#73C9E7"/>
<path d="M8.35673 4.23822L7.10594 8.12265H7.09099L6.34101 5.92255H5.19985L6.5827 9.8892H7.54197L9.49539 4.23822H8.35673Z" fill="white"/>
</svg>
