<svg width="12" height="10" viewBox="0 0 12 10" fill="none" xmlns="http://www.w3.org/2000/svg">
<path d="M2.08356 8.88102C1.39572 8.04826 0.982841 6.98038 0.982841 5.81618C0.982841 3.15633 3.13918 1 5.79902 1C8.45886 1 10.6152 3.15633 10.6152 5.81618C10.6152 6.97994 10.2023 8.04738 9.51536 8.8797" stroke="#73C9E7" stroke-width="1.3" stroke-miterlimit="10" stroke-linecap="round"/>
<path d="M2.08356 8.88101H9.51448" stroke="#73C9E7" stroke-width="1.3" stroke-miterlimit="10" stroke-linecap="round"/>
<path d="M5.79902 1V2.3135" stroke="#73C9E7" stroke-width="1.3" stroke-miterlimit="10" stroke-linecap="round"/>
<path d="M10.6152 5.81616H9.30169" stroke="#73C9E7" stroke-width="1.3" stroke-miterlimit="10" stroke-linecap="round"/>
<path d="M2.29634 5.81616H0.982841" stroke="#73C9E7" stroke-width="1.3" stroke-miterlimit="10" stroke-linecap="round"/>
<path d="M9.20449 2.41071L8.27585 3.33935" stroke="#73C9E7" stroke-width="1.3" stroke-miterlimit="10" stroke-linecap="round"/>
<path d="M2.39354 2.41071L3.32219 3.33935" stroke="#73C9E7" stroke-width="1.3" stroke-miterlimit="10" stroke-linecap="round"/>
<path d="M5.79902 4.06482C5.79902 4.06482 6.67468 5.77018 6.67468 6.25399C6.67468 6.7378 6.28282 7.12966 5.79902 7.12966C5.31521 7.12966 4.92335 6.7378 4.92335 6.25399C4.92335 5.77018 5.79902 4.06482 5.79902 4.06482Z" stroke="#73C9E7" stroke-width="1.3" stroke-miterlimit="10" stroke-linecap="round"/>
</svg>
