<svg width="12" height="10" viewBox="0 0 12 10" fill="none" xmlns="http://www.w3.org/2000/svg">
<path d="M1 3.18918V7.56752" stroke="#73C9E7" stroke-width="1.3" stroke-linecap="round" stroke-linejoin="round"/>
<path d="M2.3135 7.5675H1" stroke="#73C9E7" stroke-width="1.3" stroke-linecap="round" stroke-linejoin="round"/>
<path d="M2.3135 3.18918H1" stroke="#73C9E7" stroke-width="1.3" stroke-linecap="round" stroke-linejoin="round"/>
<path d="M3.18918 2.31348L2.31351 3.18915" stroke="#73C9E7" stroke-width="1.3" stroke-linecap="round" stroke-linejoin="round"/>
<path d="M2.31351 7.5675L3.62701 8.88101" stroke="#73C9E7" stroke-width="1.3" stroke-linecap="round" stroke-linejoin="round"/>
<path d="M7.56751 8.88098H3.62701" stroke="#73C9E7" stroke-width="1.3" stroke-linecap="round" stroke-linejoin="round"/>
<path d="M7.56752 7.12967V8.88101" stroke="#73C9E7" stroke-width="1.3" stroke-linecap="round" stroke-linejoin="round"/>
<path d="M8.88102 7.12967H7.56752" stroke="#73C9E7" stroke-width="1.3" stroke-linecap="round" stroke-linejoin="round"/>
<path d="M7.56752 3.62698L6.25402 2.31348" stroke="#73C9E7" stroke-width="1.3" stroke-linecap="round" stroke-linejoin="round"/>
<path d="M3.18917 2.31348H6.25401" stroke="#73C9E7" stroke-width="1.3" stroke-linecap="round" stroke-linejoin="round"/>
<path d="M8.88102 3.62695H7.56752" stroke="#73C9E7" stroke-width="1.3" stroke-linecap="round" stroke-linejoin="round"/>
<path d="M8.88101 7.12967V8.00534" stroke="#73C9E7" stroke-width="1.3" stroke-linecap="round" stroke-linejoin="round"/>
<path d="M3.18917 0.999969H6.69184" stroke="#73C9E7" stroke-width="1.3" stroke-linecap="round" stroke-linejoin="round"/>
<path d="M4.94051 0.999969V2.31347" stroke="#73C9E7" stroke-width="1.3" stroke-linecap="round" stroke-linejoin="round"/>
<path d="M8.88101 3.62701V2.75134" stroke="#73C9E7" stroke-width="1.3" stroke-linecap="round" stroke-linejoin="round"/>
<path d="M8.88101 8.00534H9.75668" stroke="#73C9E7" stroke-width="1.3" stroke-linecap="round" stroke-linejoin="round"/>
<path d="M8.88101 2.75134H9.75668" stroke="#73C9E7" stroke-width="1.3" stroke-linecap="round" stroke-linejoin="round"/>
<path d="M10.6324 7.12967C10.6324 7.61348 10.2405 8.00534 9.75669 8.00534" stroke="#73C9E7" stroke-width="1.3" stroke-linecap="round" stroke-linejoin="round"/>
<path d="M10.6324 3.62701C10.6324 3.1432 10.2405 2.75134 9.75669 2.75134" stroke="#73C9E7" stroke-width="1.3" stroke-linecap="round" stroke-linejoin="round"/>
<path d="M10.6324 3.62695V7.12963" stroke="#73C9E7" stroke-width="1.3" stroke-linecap="round" stroke-linejoin="round"/>
<path d="M4.9405 3.84592L4.06483 5.59725" stroke="#73C9E7" stroke-width="1.3" stroke-linecap="round" stroke-linejoin="round"/>
<path d="M5.81617 5.59726H4.06483" stroke="#73C9E7" stroke-width="1.3" stroke-linecap="round" stroke-linejoin="round"/>
<path d="M4.94051 7.3486L5.81618 5.59726" stroke="#73C9E7" stroke-width="1.3" stroke-linecap="round" stroke-linejoin="round"/>
</svg>
