<svg width="12" height="12" viewBox="0 0 12 12" fill="none" xmlns="http://www.w3.org/2000/svg">
<path d="M1 1.87567C1 1.39186 1.39186 1 1.87567 1" stroke="#73C9E7" stroke-width="1.3" stroke-linecap="round" stroke-linejoin="round"/>
<path d="M10.6324 1.87567C10.6324 1.39186 10.2405 1 9.75668 1" stroke="#73C9E7" stroke-width="1.3" stroke-linecap="round" stroke-linejoin="round"/>
<path d="M1 9.75668C1 10.2405 1.39186 10.6324 1.87567 10.6324" stroke="#73C9E7" stroke-width="1.3" stroke-linecap="round" stroke-linejoin="round"/>
<path d="M10.6324 9.75668C10.6324 10.2405 10.2405 10.6324 9.75668 10.6324" stroke="#73C9E7" stroke-width="1.3" stroke-linecap="round" stroke-linejoin="round"/>
<path d="M1 1.87567V9.75669" stroke="#73C9E7" stroke-width="1.3" stroke-linecap="round" stroke-linejoin="round"/>
<path d="M10.6324 1.87567V9.75669" stroke="#73C9E7" stroke-width="1.3" stroke-linecap="round" stroke-linejoin="round"/>
<path d="M9.75668 10.6324H1.87566" stroke="#73C9E7" stroke-width="1.3" stroke-linecap="round" stroke-linejoin="round"/>
<path d="M1.87566 1H9.75668" stroke="#73C9E7" stroke-width="1.3" stroke-linecap="round" stroke-linejoin="round"/>
<path d="M3.62701 3.62698V8.00533" stroke="#73C9E7" stroke-width="1.3" stroke-linecap="round" stroke-linejoin="round"/>
<path d="M5.81618 3.62698V8.00533" stroke="#73C9E7" stroke-width="1.3" stroke-linecap="round" stroke-linejoin="round"/>
<path d="M3.62701 5.81616H7.12968" stroke="#73C9E7" stroke-width="1.3" stroke-linecap="round" stroke-linejoin="round"/>
<path d="M8.00535 4.94049C8.00535 5.4243 7.61348 5.81616 7.12968 5.81616" stroke="#73C9E7" stroke-width="1.3" stroke-linecap="round" stroke-linejoin="round"/>
<path d="M8.00535 3.62698V4.94049" stroke="#73C9E7" stroke-width="1.3" stroke-linecap="round" stroke-linejoin="round"/>
<circle cx="8.00535" cy="8.00534" r="0.372159" fill="#73C9E7"/>
</svg>
