<svg width="27" height="25" viewBox="0 0 27 25" fill="none" xmlns="http://www.w3.org/2000/svg">
<path d="M1 5.54529V23.7271" stroke="#39C6F3" stroke-width="1.3" stroke-linecap="round" stroke-linejoin="round"/>
<path d="M26 5.54529V23.7271" stroke="#39C6F3" stroke-width="1.3" stroke-linecap="round" stroke-linejoin="round"/>
<path d="M1 23.7269H26" stroke="#39C6F3" stroke-width="1.3" stroke-linecap="round" stroke-linejoin="round"/>
<path d="M5.54614 1V5.54545" stroke="#39C6F3" stroke-width="1.3" stroke-linecap="round" stroke-linejoin="round"/>
<path d="M21.4539 1V5.54545" stroke="#39C6F3" stroke-width="1.3" stroke-linecap="round" stroke-linejoin="round"/>
<path d="M5.54614 1H10.0916" stroke="#39C6F3" stroke-width="1.3" stroke-linecap="round" stroke-linejoin="round"/>
<path d="M10.09 5.54545V1" stroke="#39C6F3" stroke-width="1.3" stroke-linecap="round" stroke-linejoin="round"/>
<path d="M21.4555 1H16.91" stroke="#39C6F3" stroke-width="1.3" stroke-linecap="round" stroke-linejoin="round"/>
<path d="M16.91 5.54545V1" stroke="#39C6F3" stroke-width="1.3" stroke-linecap="round" stroke-linejoin="round"/>
<path d="M10.09 9.18171V5.54535" stroke="#39C6F3" stroke-width="1.3" stroke-linecap="round" stroke-linejoin="round"/>
<path d="M10.0916 9.18182H5.54614" stroke="#39C6F3" stroke-width="1.3" stroke-linecap="round" stroke-linejoin="round"/>
<path d="M5.54614 5.54529V9.18165" stroke="#39C6F3" stroke-width="1.3" stroke-linecap="round" stroke-linejoin="round"/>
<path d="M21.4537 9.18171V5.54535" stroke="#39C6F3" stroke-width="1.3" stroke-linecap="round" stroke-linejoin="round"/>
<path d="M21.4554 9.18182H16.9099" stroke="#39C6F3" stroke-width="1.3" stroke-linecap="round" stroke-linejoin="round"/>
<path d="M16.91 5.54529V9.18165" stroke="#39C6F3" stroke-width="1.3" stroke-linecap="round" stroke-linejoin="round"/>
<path d="M1 5.54529H5.54545" stroke="#39C6F3" stroke-width="1.3" stroke-linecap="round" stroke-linejoin="round"/>
<path d="M10.09 5.54529H16.9081" stroke="#39C6F3" stroke-width="1.3" stroke-linecap="round" stroke-linejoin="round"/>
<path d="M25.9993 5.54529H21.4539" stroke="#39C6F3" stroke-width="1.3" stroke-linecap="round" stroke-linejoin="round"/>
<rect x="4.33301" y="12.6667" width="5" height="3.33333" fill="#39C6F3"/>
<rect x="4.33301" y="17.6666" width="5" height="3.33333" fill="#39C6F3"/>
<rect x="10.999" y="12.6667" width="5" height="3.33333" fill="#39C6F3"/>
<rect x="10.999" y="17.6666" width="5" height="3.33333" fill="#39C6F3"/>
<rect x="17.6675" y="12.6667" width="5" height="3.33333" fill="#39C6F3"/>
</svg>